<?xml version="1.0" encoding="UTF-8"?>
<svg id="Layer_1" data-name="Layer 1" xmlns="http://www.w3.org/2000/svg" viewBox="0 0 254.4 243.99">
  <g>
    <path d="m135.92,133.72c22.96,10.71,46.65,16.02,66.68,14.98.12,0,.24-.02.36-.03l1.44-142.35c.05-5.03-5.57-8.06-9.74-5.24l-119.74,80.79c9.7,18.48,32.1,38.38,61.01,51.86Z"/>
    <path d="m197.6,162.37c-20.89,0-44.58-5.73-67.4-16.37-31.49-14.69-55.17-35.63-66.56-56.52L2.76,130.55c-4.76,3.21-3.03,10.6,2.65,11.37l102.25,13.9c6.02.82,11.53,3.79,15.53,8.36l67.93,77.67c3.78,4.32,10.89,1.69,10.95-4.05l.76-75.56c-1.72.08-3.46.13-5.22.13Z"/>
  </g>
  <path d="m197.6,151.59c-20.89,0-44.58-5.73-67.4-16.37-53.71-25.05-84.76-68.3-70.69-98.46C73.58,6.59,126.67,2.57,180.38,27.62c17.57,8.19,33.5,18.82,46.05,30.73,2.71,2.57,2.83,6.86.25,9.57-2.57,2.71-6.86,2.83-9.57.25-11.51-10.92-26.19-20.7-42.46-28.28-45.26-21.11-92.38-19.93-102.87,2.58-10.5,22.51,18.88,59.36,64.14,80.47,22.96,10.71,46.64,16.03,66.68,14.98,18.51-.97,31.36-7.2,36.19-17.56,5.03-10.79.16-23.12-4.81-31.57-1.9-3.22-.83-7.37,2.4-9.27,3.22-1.9,7.37-.82,9.27,2.4,9.36,15.89,11.28,31.58,5.41,44.16-7.05,15.11-24,24.11-47.75,25.36-1.88.1-3.78.15-5.71.15Z"/>
</svg>